<svg width="430" height="108" viewBox="0 0 430 108" fill="none" xmlns="http://www.w3.org/2000/svg">
<path d="M-1.03865 0.861633L-1.03865 53.9107H51.9324V0.861633L-1.03865 0.861633Z" fill="white"/>
<path d="M51.9324 0.861633V53.9107H105.942V0.861633L51.9324 0.861633Z" fill="#2D5A54"/>
<path d="M-1.03865 53.9108L-1.03865 108H51.9324V53.9108H-1.03865Z" fill="#2D5A54"/>
<path d="M51.9324 53.9108V108C81.7614 108 105.942 83.7834 105.942 53.9113V53.9108H51.9324Z" fill="#2D5A54"/>
<path d="M51.9324 0.861633C22.6773 0.861633 -1.03865 24.6127 -1.03865 53.9107H51.9324V0.861633Z" fill="#2D5A54"/>
<path d="M51.9324 0.861633V53.9107H105.942C105.942 24.6127 81.7614 0.861633 51.9324 0.861633Z" fill="white"/>
<path d="M51.9324 108V53.9108H-1.03865C-1.03865 83.7829 22.6773 108 51.9324 108Z" fill="white"/>
<path d="M74.7826 54.431C74.7826 42.0799 64.7852 32.067 52.4517 32.067C40.1187 32.067 30.1208 42.0799 30.1208 54.431C30.1208 66.7826 40.1187 76.7947 52.4517 76.7947C64.7852 76.7947 74.7826 66.7826 74.7826 54.431Z" fill="white"/>
<path d="M160.99 53.9107H105.942V0.861633L160.99 0.861633V53.9107Z" fill="white"/>
<path d="M213.961 53.9107H160.99V0.861633L213.961 0.861633V53.9107Z" fill="#2D5A54"/>
<path d="M267.971 53.9107H213.961V0.861633L267.971 0.861633V53.9107Z" fill="#2D5A54"/>
<path d="M133.466 53.9107C118.265 53.9107 105.942 42.0416 105.942 27.3994V27.3727C105.942 12.7308 118.265 0.861633 133.466 0.861633C148.668 0.861633 160.99 12.7308 160.99 27.3727V27.3994C160.99 42.0416 148.668 53.9107 133.466 53.9107Z" fill="#2D5A54"/>
<path d="M133.466 41.4286C126.296 41.4286 120.483 35.61 120.483 28.4329V28.4196C120.483 21.2425 126.296 15.4241 133.466 15.4241C140.637 15.4241 146.449 21.2425 146.449 28.4196V28.4329C146.449 35.61 140.637 41.4286 133.466 41.4286Z" fill="white"/>
<path d="M175.531 41.9484C175.531 43.3847 174.369 44.5492 172.935 44.5492C171.5 44.5492 170.338 43.3847 170.338 41.9484C170.338 40.5123 171.5 39.3483 172.935 39.3483C174.369 39.3483 175.531 40.5123 175.531 41.9484Z" fill="white"/>
<path d="M191.111 41.9484C191.111 43.3847 189.949 44.5492 188.515 44.5492C187.081 44.5492 185.918 43.3847 185.918 41.9484C185.918 40.5123 187.081 39.3483 188.515 39.3483C189.949 39.3483 191.111 40.5123 191.111 41.9484Z" fill="white"/>
<path d="M205.652 41.9484C205.652 43.3847 204.257 44.5492 202.536 44.5492C200.815 44.5492 199.42 43.3847 199.42 41.9484C199.42 40.5123 200.815 39.3483 202.536 39.3483C204.257 39.3483 205.652 40.5123 205.652 41.9484Z" fill="white"/>
<path d="M175.531 27.3863C175.531 28.8226 174.369 29.9867 172.935 29.9867C171.5 29.9867 170.338 28.8226 170.338 27.3863C170.338 25.9499 171.5 24.7858 172.935 24.7858C174.369 24.7858 175.531 25.9499 175.531 27.3863Z" fill="white"/>
<path d="M191.111 27.3863C191.111 28.8226 189.949 29.9867 188.515 29.9867C187.081 29.9867 185.918 28.8226 185.918 27.3863C185.918 25.9499 187.081 24.7858 188.515 24.7858C189.949 24.7858 191.111 25.9499 191.111 27.3863Z" fill="white"/>
<path d="M205.652 27.3863C205.652 28.8226 204.257 29.9867 202.536 29.9867C200.815 29.9867 199.42 28.8226 199.42 27.3863C199.42 25.9499 200.815 24.7858 202.536 24.7858C204.257 24.7858 205.652 25.9499 205.652 27.3863Z" fill="white"/>
<path d="M175.531 13.3441C175.531 15.0675 174.369 16.4643 172.935 16.4643C171.5 16.4643 170.338 15.0675 170.338 13.3441C170.338 11.6207 171.5 10.2233 172.935 10.2233C174.369 10.2233 175.531 11.6207 175.531 13.3441Z" fill="white"/>
<path d="M191.111 13.3441C191.111 15.0675 189.949 16.4643 188.515 16.4643C187.081 16.4643 185.918 15.0675 185.918 13.3441C185.918 11.6207 187.081 10.2233 188.515 10.2233C189.949 10.2233 191.111 11.6207 191.111 13.3441Z" fill="white"/>
<path d="M205.652 13.3441C205.652 15.0675 204.257 16.4643 202.536 16.4643C200.815 16.4643 199.42 15.0675 199.42 13.3441C199.42 11.6207 200.815 10.2233 202.536 10.2233C204.257 10.2233 205.652 11.6207 205.652 13.3441Z" fill="white"/>
<path d="M254.469 42.4688H226.425V14.384L254.469 14.384V42.4688Z" fill="white"/>
<path d="M160.99 108H105.942V53.9108H160.99V108Z" fill="white"/>
<path d="M213.961 108H160.99V53.9108H213.961V108Z" fill="white"/>
<path d="M160.99 108H105.942L160.99 53.9108V108Z" fill="#2D5A54"/>
<path d="M213.961 108L160.99 53.9108H213.961V108Z" fill="#2D5A54"/>
<path d="M377.029 108L377.029 53.9107L321.981 53.9107L321.981 108L377.029 108Z" fill="#2D5A54"/>
<path d="M321.981 108L321.981 53.9107L269.01 53.9107L269.01 108L321.981 108Z" fill="#2D5A54"/>
<path d="M349.505 93.4375C356.676 93.4375 362.488 87.849 362.488 80.9551C362.488 74.0617 356.676 68.4732 349.505 68.4732C342.335 68.4732 336.522 74.0617 336.522 80.9551C336.522 87.849 342.335 93.4375 349.505 93.4375Z" fill="white"/>
<path d="M308.478 93.4375L308.478 68.4732L282.512 68.4732L282.512 93.4375L308.478 93.4375Z" fill="white"/>
<path d="M267.971 96.558L267.971 53.9107L225.386 53.9107L225.386 96.558L267.971 96.558Z" fill="white"/>
<path d="M267.971 76.7947L267.971 53.9108L244.082 53.9107L244.082 76.7947L267.971 76.7947Z" fill="#2D5A54"/>
<path d="M321.981 0.861659L321.981 53.9108L377.029 53.9108L377.029 0.861664L321.981 0.861659Z" fill="white"/>
<path d="M269.01 0.861659L269.01 53.9108L321.981 53.9108L321.981 0.861664L269.01 0.861659Z" fill="white"/>
<path d="M377.029 53.9108L321.981 53.9108C321.981 24.6122 346.626 0.861661 377.029 0.861664L377.029 53.9108Z" fill="#2D5A54"/>
<path d="M377.029 53.9108L337.56 53.9108C337.56 32.6551 355.231 15.4242 377.029 15.4242L377.029 53.9108Z" fill="white"/>
<path d="M377.029 53.9108L359.372 53.9108C359.372 44.7189 367.277 37.2679 377.029 37.2679L377.029 53.9108Z" fill="#2D5A54"/>
<path d="M296.014 53.9108C310.355 53.9108 321.981 42.0354 321.981 27.3862L321.981 0.861664L296.014 0.861662L296.014 53.9108Z" fill="#2D5A54"/>
<path d="M377.029 0.861633V53.9107H430V0.861633L377.029 0.861633Z" fill="#2D5A54"/>
<path d="M397.802 14.3841C397.802 10.3627 394.547 7.10272 390.532 7.10272C386.516 7.10272 383.261 10.3627 383.261 14.3841C383.261 18.4058 386.516 21.6652 390.532 21.6652C394.547 21.6652 397.802 18.4058 397.802 14.3841Z" fill="white"/>
<path d="M397.802 40.9087C397.802 37.1741 394.547 34.1473 390.532 34.1473C386.516 34.1473 383.261 37.1741 383.261 40.9087C383.261 44.6424 386.516 47.6697 390.532 47.6697C394.547 47.6697 397.802 44.6424 397.802 40.9087Z" fill="white"/>
<path d="M377.029 108H430V53.9108H377.029V108Z" fill="white"/>
<path d="M382.222 99.6786H393.647C393.647 95.6571 391.09 92.3974 387.935 92.3974C384.779 92.3974 382.222 95.6571 382.222 99.6786Z" fill="#2D5A54"/>
<path d="M382.222 90.317H393.647C393.647 86.2956 391.09 83.0358 387.935 83.0358C384.779 83.0358 382.222 86.2956 382.222 90.317Z" fill="#2D5A54"/>
<path d="M382.222 79.9152H393.647C393.647 75.8942 391.09 72.634 387.935 72.634C384.779 72.634 382.222 75.8942 382.222 79.9152Z" fill="#2D5A54"/>
<path d="M382.222 68.4733H393.647C393.647 65.601 391.09 63.2724 387.935 63.2724C384.779 63.2724 382.222 65.601 382.222 68.4733Z" fill="#2D5A54"/>
<path d="M397.802 99.6786H409.227C409.227 95.6571 406.67 92.3974 403.515 92.3974C400.36 92.3974 397.802 95.6571 397.802 99.6786Z" fill="#2D5A54"/>
<path d="M397.802 90.317H409.227C409.227 86.2956 406.67 83.0358 403.515 83.0358C400.36 83.0358 397.802 86.2956 397.802 90.317Z" fill="#2D5A54"/>
<path d="M397.802 79.9152H409.227C409.227 75.8942 406.67 72.634 403.515 72.634C400.36 72.634 397.802 75.8942 397.802 79.9152Z" fill="#2D5A54"/>
<path d="M397.802 68.4733H409.227C409.227 65.601 406.67 63.2724 403.515 63.2724C400.36 63.2724 397.802 65.601 397.802 68.4733Z" fill="#2D5A54"/>
<path d="M412.343 99.6786H424.807C424.807 95.6571 422.017 92.3974 418.575 92.3974C415.133 92.3974 412.343 95.6571 412.343 99.6786Z" fill="#2D5A54"/>
<path d="M412.343 90.317H424.807C424.807 86.2956 422.017 83.0358 418.575 83.0358C415.133 83.0358 412.343 86.2956 412.343 90.317Z" fill="#2D5A54"/>
<path d="M412.343 79.9152H424.807C424.807 75.8942 422.017 72.634 418.575 72.634C415.133 72.634 412.343 75.8942 412.343 79.9152Z" fill="#2D5A54"/>
<path d="M412.343 68.4733H424.807C424.807 65.601 422.017 63.2724 418.575 63.2724C415.133 63.2724 412.343 65.601 412.343 68.4733Z" fill="#2D5A54"/>
</svg>
